# xmcd
#
# Track frame offsets: 
#        150
#        25592
#        47798
#        61936
#        94721
#        129766
#        150403
#        158784
#        175997
#        190423
#        211200
#        222002
#        245038
#        255899
#        278441
#        301703
#
# Disc length: 4197 seconds
#
# Revision: 0
# Processed by: cddbd v1.5.2PL0 Copyright (c) Steve Scherf et al.
# Submitted via: ExactAudioCopy v0.99pb5
#
DISCID=c4106310
DTITLE=Lightnin' Hopkins - Lightnin' Sam Hopkins
DYEAR=1962
DGENRE=Blues
TTITLE0=Meet You At The Chicken Shack
TTITLE1=Once Was A Gambler
TTITLE2=Speedin' Boogie
TTITLE3=Ice Storm Blues
TTITLE4=California Showers
TTITLE5=Burnin' In L.A.
TTITLE6=Do The Boogie
TTITLE7=Bald Headed Woman
TTITLE8=Goin' Out
TTITLE9=My Baby's Gone (bonus)
TTITLE10=Wake Up Old Maid (bonus)
TTITLE11=Candy Kitchen (bonus)
TTITLE12=Jesus Will You Come By Here (bonus)
TTITLE13=Wine Drinking Woman (bonus)
TTITLE14=Hurricanes Carla and Esther (bonus)
TTITLE15=Candy Wagon (bonus)
EXTD=
EXTT0=
EXTT1=
EXTT2=
EXTT3=
EXTT4=
EXTT5=
EXTT6=
EXTT7=
EXTT8=
EXTT9=
EXTT10=
EXTT11=
EXTT12=
EXTT13=
EXTT14=
EXTT15=
PLAYORDER=
